# xmcd
#
# Track frame offsets: 
#        150
#        9002
#        32087
#        53227
#        68687
#        82967
#        118305
#        138720
#        161297
#        190167
#        207600
#        244252
#        273312
#
# Disc length: 3851 seconds
#
# Revision: 7
# Processed by: cddbd v1.5.2PL0 Copyright (c) Steve Scherf et al.
# Submitted via: ExactAudioCopyFreeDBPlugin 1.0
#
DISCID=b20f090d
DTITLE=B.B. King - Live At San Quentin (Remastered)
DYEAR=2001
DGENRE=Blues
TTITLE0=Intro
TTITLE1=Let The Good Times Roll
TTITLE2=Every Day I Have The Blues
TTITLE3=Whole Lotta Loving
TTITLE4=Sweet Little Angel
TTITLE5=Never Make A Move Too Soon
TTITLE6=Into The Night
TTITLE7=Ain't Nobody's Bizness
TTITLE8=The Thrill Is Gone
TTITLE9=Peace To The World
TTITLE10=Nobody Loves Me But My Mother
TTITLE11=Sweet Sixteen
TTITLE12=Rock Me Baby
EXTD=
EXTT0=
EXTT1=
EXTT2=
EXTT3=
EXTT4=
EXTT5=
EXTT6=
EXTT7=
EXTT8=
EXTT9=
EXTT10=
EXTT11=
EXTT12=
PLAYORDER=
